<?xml version="1.0" standalone="no"?>
<!DOCTYPE svg PUBLIC "-//W3C//DTD SVG 1.1//EN" "http://www.w3.org/Graphics/SVG/1.1/DTD/svg11.dtd">
<svg viewBox="0 0 452 562" version="1.1" xmlns="http://www.w3.org/2000/svg" xmlns:xlink="http://www.w3.org/1999/xlink" xml:space="preserve" >
<g>
<circle cx="144" cy="532.162" r="25" />
<path d="M308.321,557.162l-25,-50l50,0l-25,50Z" />
<path d="M405.713,422.162l25,25l-25,25l-25,-25l25,-25Z" />
<path d="M172.514,348.082c-31.01,-33.379 -33.714,-24.006 -88.527,-46.667c-10.325,-4.269 -13.281,-9.679 -18.139,-16.758c-8.612,-12.546 -23.969,-27.665 -33.782,-44.331c-2.239,-6.475 -3.018,-15.749 -4.82,-19.133c-4.847,-13.752 -13.784,-30.951 -24.792,-50.343c7.121,-15.016 23.654,-3.023 28.166,8.723c11.567,5.807 17.476,13.08 18.585,21.596c4.912,4.509 10.398,11.969 16.422,22.196c8.009,5.246 14.127,11.52 19.345,18.284c8.872,8.215 17.718,15.54 26.415,17.965c7.102,-3.382 7.933,-4.164 6.76,-5.772c6.464,-1.737 -23.737,-8.906 -36.115,-18.771c-10.209,-10.088 -9.158,-18.272 6.78,-20.187c13.465,2.039 26.633,7.503 39.86,13.736c58.181,14.098 64.521,26.709 70.369,47.597c-0.082,-4.378 22.586,33.593 26.588,44.406c4.001,-10.813 26.669,-48.784 26.587,-44.406c5.848,-20.888 12.188,-33.499 70.369,-47.597c13.227,-6.233 26.396,-11.697 39.86,-13.736c15.938,1.915 16.99,10.099 6.78,20.187c-12.378,9.865 -42.579,17.034 -36.115,18.771c-1.173,1.608 -0.342,2.39 6.76,5.772c8.697,-2.425 17.543,-9.75 26.415,-17.965c5.218,-6.764 11.336,-13.038 19.345,-18.284c6.024,-10.227 11.51,-17.687 16.422,-22.196c1.109,-8.516 7.019,-15.789 18.585,-21.596c4.512,-11.746 21.045,-23.739 28.166,-8.723c-11.008,19.392 -19.945,36.591 -24.792,50.343c-1.802,3.384 -2.58,12.658 -4.82,19.133c-9.813,16.666 -25.17,31.785 -33.782,44.331c-4.858,7.079 -7.814,12.489 -18.139,16.758c-54.813,22.661 -57.517,13.288 -88.527,46.667l-0.044,0c7.357,34.245 63.348,85.644 117.902,88.159c-65.872,-2.515 -137.023,-53.914 -145.905,-88.159c1.028,58.956 22.61,117.646 56.561,159.08c-48.998,-41.434 -80.145,-100.124 -81.628,-159.08c-1.484,58.956 -32.631,117.646 -81.629,159.08c33.951,-41.434 55.533,-100.124 56.561,-159.08c-8.882,34.245 -80.033,85.644 -145.905,88.159c54.555,-2.515 110.342,-53.914 117.698,-88.159" />
<path d="M51.822,426.936l23.776,17.275l-9.082,27.951l-29.389,0l-9.082,-27.951l23.777,-17.275Z" />
</g>
<path d="M225.629,0.311c-60.727,0 -110.013,49.285 -110.013,110.012c0,60.727 49.286,110.012 110.013,110.012c60.726,0 110.012,-49.285 110.012,-110.012c0,-60.727 -49.286,-110.012 -110.012,-110.012ZM214.627,197.563c-43.454,-5.391 -77.008,-42.355 -77.008,-87.24c0,-6.821 0.88,-13.311 2.31,-19.692l52.696,52.696l0,11.001c0,12.101 9.901,22.002 22.002,22.002l0,21.233ZM290.536,169.62c-2.861,-8.911 -11.002,-15.292 -20.903,-15.292l-11.001,0l0,-33.004c0,-6.05 -4.95,-11.001 -11.001,-11.001l-66.007,0l0,-22.002l22.002,0c6.051,0 11.001,-4.951 11.001,-11.002l0,-22.002l22.003,0c12.101,0 22.002,-9.901 22.002,-22.002l0,-4.511c32.234,13.092 55.006,44.665 55.006,81.519c0,22.883 -8.801,43.675 -23.102,59.297Z" />
</svg>